<?xml version="1.0" encoding="UTF-8"?><svg xmlns="http://www.w3.org/2000/svg" xmlns:xlink="http://www.w3.org/1999/xlink" width="375" zoomAndPan="magnify" viewBox="0 0 375 374.999991" height="374.999991" preserveAspectRatio="xMidYMid meet" version="1.0"><defs><clipPath id="clip-0"><path d="M 19 71.070312 L 223 71.070312 L 223 303.570312 L 19 303.570312 Z M 19 71.070312 " clip-rule="nonzero"/></clipPath><clipPath id="clip-1"><path d="M 154 71.070312 L 356.789062 71.070312 L 356.789062 303.570312 L 154 303.570312 Z M 154 71.070312 " clip-rule="nonzero"/></clipPath><clipPath id="clip-2"><path d="M 19 71.070312 L 223 71.070312 L 223 303.570312 L 19 303.570312 Z M 19 71.070312 " clip-rule="nonzero"/></clipPath></defs><rect x="-37.5" width="450" fill="rgb(100%, 100%, 100%)" y="-37.499999" height="449.999989" fill-opacity="1"/><rect x="-37.5" width="450" fill="rgb(100%, 100%, 100%)" y="-37.499999" height="449.999989" fill-opacity="1"/><rect x="-37.5" width="450" fill="rgb(100%, 100%, 100%)" y="-37.499999" height="449.999989" fill-opacity="1"/><g clip-path="url(#clip-0)"><path fill="rgb(18.429565%, 25.489807%, 58.81958%)" d="M 213.726562 71.042969 C 218.421875 71.042969 222.257812 74.886719 222.257812 79.582031 L 222.257812 295.769531 C 222.257812 300.464844 218.421875 304.300781 213.726562 304.300781 L 159.800781 304.300781 C 155.109375 304.300781 151.269531 300.460938 151.269531 295.769531 L 151.269531 221.621094 C 151.269531 216.925781 149.347656 216.414062 147.003906 220.476562 L 102.894531 296.90625 C 100.550781 300.972656 94.792969 304.300781 90.097656 304.300781 L 25.203125 304.300781 C 20.511719 304.300781 18.585938 300.972656 20.929688 296.90625 L 147.003906 78.445312 C 149.347656 74.378906 151.269531 71.050781 151.269531 71.050781 C 151.269531 71.042969 155.109375 71.042969 159.800781 71.042969 Z M 213.726562 71.042969 " fill-opacity="1" fill-rule="nonzero"/></g><g clip-path="url(#clip-1)"><path fill="rgb(33.329773%, 41.178894%, 74.899292%)" d="M 348.203125 71.042969 C 352.898438 71.042969 356.738281 74.886719 356.738281 79.582031 L 356.738281 295.769531 C 356.738281 300.464844 352.898438 304.300781 348.203125 304.300781 L 294.28125 304.300781 C 289.585938 304.300781 285.746094 300.460938 285.746094 295.769531 L 285.746094 221.621094 C 285.746094 216.925781 283.828125 216.414062 281.484375 220.476562 L 237.375 296.90625 C 235.03125 300.972656 229.277344 304.300781 224.582031 304.300781 L 159.679688 304.300781 C 154.984375 304.300781 153.066406 300.972656 155.410156 296.90625 L 281.492188 78.445312 C 283.835938 74.378906 285.753906 71.050781 285.753906 71.050781 C 285.753906 71.042969 289.59375 71.042969 294.289062 71.042969 Z M 348.203125 71.042969 " fill-opacity="1" fill-rule="nonzero"/></g><g clip-path="url(#clip-2)"><path fill="rgb(22.349548%, 28.62854%, 67.059326%)" d="M 147.003906 220.484375 L 102.894531 296.914062 C 100.550781 300.976562 94.792969 304.308594 90.097656 304.308594 L 25.203125 304.308594 C 20.511719 304.308594 18.585938 300.976562 20.929688 296.914062 L 147.003906 78.445312 C 149.347656 74.378906 151.269531 71.050781 151.269531 71.050781 C 151.269531 71.042969 155.109375 71.042969 159.800781 71.042969 L 213.726562 71.042969 C 218.421875 71.042969 222.257812 74.886719 222.257812 79.582031 L 222.257812 153.371094 L 151.273438 276.386719 L 151.273438 221.628906 C 151.273438 216.929688 149.355469 216.414062 147.003906 220.484375 Z M 147.003906 220.484375 " fill-opacity="1" fill-rule="nonzero"/></g></svg>